<svg xmlns="http://www.w3.org/2000/svg" enable-background="new 0 0 24 24" viewBox="0 0 24 24" id="reddit"><path fill="#ff5722" d="m21.325 9.308c-.758 0-1.426.319-1.916.815-1.806-1.267-4.239-2.083-6.936-2.171l1.4-6.405 4.461 1.016c0 1.108.891 2.013 1.982 2.013 1.112 0 2.009-.929 2.009-2.038s-.891-2.038-2.009-2.038c-.779 0-1.451.478-1.786 1.129l-4.927-1.108c-.248-.067-.491.113-.557.364l-1.536 7.063c-2.676.112-5.084.928-6.894 2.196-.492-.518-1.184-.836-1.943-.836-2.812 0-3.732 3.829-1.158 5.138-.091.405-.132.837-.132 1.268 0 4.301 4.775 7.787 10.639 7.787 5.888 0 10.662-3.485 10.662-7.787 0-.431-.045-.882-.156-1.289 2.523-1.314 1.594-5.115-1.203-5.117z"></path><path fill="#de4c1e" d="m7.598 16.731c-1.108 0-1.998-.907-1.998-2.013 0-1.129.891-2.038 2.008-2.038 1.093 0 1.984.903 1.984 2.038 0 1.109-.89 2.013-1.984 2.013-.003 0-.006 0-.01 0zm4.402-11.034-.49 2.251c-2.676.112-5.084.928-6.894 2.196-.492-.518-1.184-.836-1.943-.836-1.665 0-2.666 1.342-2.673 2.708v.026c.004.933.474 1.874 1.515 2.403-.091.405-.132.837-.132 1.268 0 4.296 4.763 7.778 10.617 7.787v-2.583c-1.758 0-3.517-.467-4.438-1.401-.203-.18-.203-.499 0-.703.088-.09.211-.135.334-.135s.246.045.334.135c.706.735 2.234 1.107 3.765 1.107h.004v-14.223z"></path><path fill="#fff" d="m16.44 19.517c-1.841 1.868-7.036 1.868-8.878 0-.203-.18-.203-.498 0-.703.177-.18.491-.18.668 0 1.406 1.463 6.07 1.488 7.536 0 .178-.18.491-.18.668 0 .208.205.208.523.006.703z"></path><path fill="#dedede" d="m7.896 18.679c-.123 0-.246.045-.334.135-.203.205-.203.523 0 .703.921.934 2.679 1.4 4.438 1.401v-.998c-.001 0-.003 0-.004 0-1.532 0-3.059-.372-3.765-1.107-.089-.089-.212-.134-.335-.134z"></path><path fill="#fff" d="m5.601 14.718c0-1.129.891-2.037 2.008-2.037 1.093 0 1.983.903 1.983 2.037 0 1.11-.89 2.013-1.983 2.013-1.113.005-2.008-.903-2.008-2.013z"></path><path fill="#dedede" d="m7.597 12.681c-1.112.006-1.996.913-1.996 2.037 0 1.106.889 2.012 1.996 2.013z"></path><path fill="#fff" d="m16.399 16.735c-1.092 0-1.982-.903-1.982-2.012 0-1.129.891-2.037 1.982-2.037 1.112 0 2.008.903 2.008 2.037-.005 1.105-.895 2.012-2.008 2.012z"></path><path fill="#dedede" d="m16.399 12.686c-1.092 0-1.982.909-1.982 2.037 0 1.108.891 2.012 1.982 2.012h.013v-4.049c-.004 0-.008 0-.013 0z"></path></svg>